<svg width="23" height="31" viewBox="0 0 23 31" fill="none" xmlns="http://www.w3.org/2000/svg">
<path d="M8.56 16.36V13.44H12.4C17.44 13.44 18.24 12.8 18.24 7.96C18.24 4.8 16.68 2.92 10.92 2.92C5.08 2.92 3.68 4.8 3.68 9.48H0.48C0.48 2.52 3.24 0 10.88 0C18.6 0 21.56 2.8 21.56 7.96C21.56 12.84 20.08 14.36 16.68 14.88C21.08 15.44 22.12 17.68 22.12 21.64C22.12 28.72 19.6 30.6 10.96 30.6C4.52 30.6 0 29.48 0 22.24V20.48H3.2V22.24C3.2 26.36 4.6 27.68 10.92 27.68C17.92 27.68 18.8 26.44 18.8 21.64C18.8 17.64 17.08 16.36 12.72 16.36H8.56Z" fill="#1A4D70"/>
</svg>
