<svg width="94" height="62" viewBox="0 0 94 62" fill="none" xmlns="http://www.w3.org/2000/svg">
<path d="M22.32 32.4C9.36 32.4 6.64 35.2 6.64 43.92C6.64 52.64 9.36 55.28 22.4 55.28C35.36 55.28 38.16 52.8 38.16 43.68C38.16 35.2 35.36 32.4 22.32 32.4ZM22.32 5.84C10 5.84 7.52 8.64 7.52 16C7.52 24.56 9.36 26.72 22.32 26.72C35.84 26.72 37.28 23.92 37.28 16.08C37.28 8.88 34.96 5.84 22.32 5.84ZM10.32 29.28C1.92 27.6 0.88 22.96 0.88 16.08C0.88 4 6.32 0 22.56 0C38.72 0 43.92 4 43.92 16C43.92 22.72 42.8 27.52 34.32 29.28C42.4 30.72 44.8 35.84 44.8 43.28C44.8 56.4 41.04 61.12 22.32 61.12C3.92 61.12 0 56.32 0 42.96C0 35.84 1.68 30.96 10.32 29.28Z" fill="#F9572B"/>
<path d="M52.5963 28.08H70.9963V10.72H74.8363V28.08H93.3963V31.84H74.8363V49.2H70.9963V31.84H52.5963V28.08Z" fill="#F9572B"/>
</svg>
