<svg width="145" height="62" viewBox="0 0 145 62" fill="none" xmlns="http://www.w3.org/2000/svg">
<path d="M43.2 54.72V60.56H0V49.36C0 35.36 8.56 33.52 21.28 32.4C34.8 31.2 36.56 28.72 36.56 19.04C36.56 9.6 32.8 5.84 22 5.84C9.12 5.84 6.4 10.24 6.4 18.56V21.04H0C0 5.04 4.96 0 22.16 0C36.64 0 43.2 5.04 43.2 19.12C43.2 34.24 38.08 36.64 23.04 38.24C8.72 39.76 6.4 41.68 6.4 50V54.72H43.2Z" fill="#F9572B"/>
<path d="M99.0763 30.4C99.0763 55.2 91.7163 61.2 73.7163 61.2C55.7163 61.2 48.3563 55.2 48.3563 30.4C48.3563 5.6 55.6363 0 73.7163 0C91.7163 0 99.0763 5.6 99.0763 30.4ZM92.4363 30.4C92.4363 10 89.0763 5.84 73.7163 5.84C58.2763 5.84 54.9963 10 54.9963 30.32C54.9963 50.56 58.4363 55.36 73.7163 55.36C88.9163 55.36 92.4363 50.48 92.4363 30.4Z" fill="#F9572B"/>
<path d="M103.278 28.16H121.678V10.8H125.518V28.16H144.078V31.92H125.518V49.28H121.678V31.92H103.278V28.16Z" fill="#F9572B"/>
</svg>
