<svg width="149" height="62" viewBox="0 0 149 62" fill="none" xmlns="http://www.w3.org/2000/svg">
<path d="M43.2 54.72V60.56H0V49.36C0 35.36 8.56 33.52 21.28 32.4C34.8 31.2 36.56 28.72 36.56 19.04C36.56 9.6 32.8 5.84 22 5.84C9.12 5.84 6.4 10.24 6.4 18.56V21.04H0C0 5.04 4.96 0 22.16 0C36.64 0 43.2 5.04 43.2 19.12C43.2 34.24 38.08 36.64 23.04 38.24C8.72 39.76 6.4 41.68 6.4 50V54.72H43.2Z" fill="#F9572B"/>
<path d="M57.0762 30.96V0.72H97.3963V6.56H63.4762V24.48C67.0762 19.68 73.7163 19.52 79.1563 19.52C93.3963 19.52 99.5563 24.32 99.5563 38.4C99.5563 55.68 95.5563 61.2 78.0363 61.2C63.7963 61.2 55.7962 60.08 55.7962 43.36H62.4363C62.4363 53.36 64.0363 55.36 78.0363 55.36C88.4363 55.36 92.9163 53.04 92.9163 42.32C92.9163 29.36 90.7563 25.36 79.2363 25.36C66.5163 25.36 64.5962 26.72 63.4762 30.96H57.0762Z" fill="#F9572B"/>
<path d="M107.278 28.16H125.678V10.8H129.518V28.16H148.078V31.92H129.518V49.28H125.678V31.92H107.278V28.16Z" fill="#F9572B"/>
</svg>
