<svg width="24" height="32" viewBox="0 0 24 32" fill="none" xmlns="http://www.w3.org/2000/svg">
<path d="M12.1145 -0.0114746C5.555 -0.0114746 0 5.57503 0 12.193C0 19.123 6.4385 26.21 10.7695 31.191C10.786 31.211 11.486 31.9885 12.3485 31.9885H12.425C13.2875 31.9885 13.9825 31.211 14 31.191C18.0645 26.5185 24 18.8145 24 12.193C24 5.57503 19.667 -0.0114746 12.1145 -0.0114746ZM12.5155 29.8495C12.4805 29.8845 12.4295 29.9236 12.3845 29.9561C12.3385 29.9246 12.2885 29.8846 12.2515 29.8496L11.7285 29.2481C7.6225 24.5375 2 18.0871 2 12.193C2 6.66153 6.632 1.98803 12.1145 1.98803C18.9435 1.98803 22 7.11303 22 12.193C22 16.6675 18.8085 22.6085 12.5155 29.8495ZM12.035 6.04403C8.72147 6.04403 6.03497 8.73053 6.03497 12.044C6.03497 15.3575 8.72147 18.044 12.035 18.044C15.3485 18.044 18.035 15.3575 18.035 12.044C18.035 8.73053 15.3485 6.04403 12.035 6.04403ZM12.035 16.044C9.82947 16.044 7.98894 14.206 7.98894 12C7.98894 9.79453 9.78344 8.00003 11.9889 8.00003C14.1959 8.00003 15.9889 9.79453 15.9889 12C15.9899 14.206 14.242 16.044 12.035 16.044Z" fill="white"/>
</svg>
