<svg width="58" height="58" viewBox="0 0 58 58" fill="none" xmlns="http://www.w3.org/2000/svg">
<circle cx="29" cy="29" r="29" fill="#F9572B"/>
<g clip-path="url(#clip0_169_91)">
<path d="M29.1145 12.9885C22.555 12.9885 17 18.575 17 25.193C17 32.123 23.4385 39.21 27.7695 44.191C27.786 44.211 28.486 44.9885 29.3485 44.9885H29.425C30.2875 44.9885 30.9825 44.211 31 44.191C35.0645 39.5185 41 31.8145 41 25.193C41 18.575 36.667 12.9885 29.1145 12.9885ZM29.5155 42.8495C29.4805 42.8845 29.4295 42.9236 29.3845 42.9561C29.3385 42.9246 29.2885 42.8846 29.2515 42.8496L28.7285 42.2481C24.6225 37.5375 19 31.0871 19 25.193C19 19.6615 23.632 14.988 29.1145 14.988C35.9435 14.988 39 20.113 39 25.193C39 29.6675 35.8085 35.6085 29.5155 42.8495ZM29.035 19.044C25.7215 19.044 23.035 21.7305 23.035 25.044C23.035 28.3575 25.7215 31.044 29.035 31.044C32.3485 31.044 35.035 28.3575 35.035 25.044C35.035 21.7305 32.3485 19.044 29.035 19.044ZM29.035 29.044C26.8295 29.044 24.9889 27.206 24.9889 25C24.9889 22.7945 26.7834 21 28.9889 21C31.1959 21 32.9889 22.7945 32.9889 25C32.9899 27.206 31.242 29.044 29.035 29.044Z" fill="white"/>
</g>
<defs>
<clipPath id="clip0_169_91">
<rect width="32" height="32" fill="white" transform="translate(13 13)"/>
</clipPath>
</defs>
</svg>
